<svg xmlns="http://www.w3.org/2000/svg" xmlns:xlink="http://www.w3.org/1999/xlink" width="500" zoomAndPan="magnify" viewBox="0 0 375 374.999991" height="500" preserveAspectRatio="xMidYMid meet" version="1.0"><defs><clipPath id="844abe72fe"><path d="M 162 111.238281 L 216 111.238281 L 216 213 L 162 213 Z M 162 111.238281 " clip-rule="nonzero"/></clipPath><clipPath id="4dc0e753db"><path d="M 118.101562 233 L 184 233 L 184 258 L 118.101562 258 Z M 118.101562 233 " clip-rule="nonzero"/></clipPath><clipPath id="53e85ae76a"><path d="M 157 241 L 220 241 L 220 263.488281 L 157 263.488281 Z M 157 241 " clip-rule="nonzero"/></clipPath><clipPath id="4fe80ea6fb"><path d="M 164 210 L 256.851562 210 L 256.851562 255 L 164 255 Z M 164 210 " clip-rule="nonzero"/></clipPath></defs><path fill="#cd9a5e" d="M 156.488281 179.269531 L 150.371094 181.734375 L 150.371094 176.609375 L 156.488281 174.140625 Z M 156.488281 186.859375 L 150.371094 189.328125 L 150.371094 184.203125 L 156.488281 181.734375 Z M 156.488281 194.453125 L 150.371094 196.917969 L 150.371094 191.792969 L 156.488281 189.328125 Z M 156.488281 202.042969 L 150.371094 204.511719 L 150.371094 199.382812 L 156.488281 196.917969 Z M 156.488281 209.636719 L 150.371094 212.101562 L 150.371094 206.976562 L 156.488281 204.511719 Z M 156.488281 217.226562 L 150.371094 219.695312 L 150.371094 214.570312 L 156.488281 212.101562 Z M 156.488281 224.820312 L 150.371094 227.289062 L 150.371094 222.160156 L 156.488281 219.695312 Z M 149.039062 182.273438 L 143.621094 184.460938 L 143.621094 179.332031 L 149.039062 177.148438 Z M 149.039062 189.867188 L 143.621094 192.050781 L 143.621094 186.925781 L 149.039062 184.738281 Z M 149.039062 197.457031 L 143.621094 199.640625 L 143.621094 194.515625 L 149.039062 192.332031 Z M 149.039062 205.050781 L 143.621094 207.234375 L 143.621094 202.105469 L 149.039062 199.921875 Z M 149.039062 212.640625 L 143.621094 214.824219 L 143.621094 209.699219 L 149.039062 207.515625 Z M 149.039062 220.234375 L 143.621094 222.417969 L 143.621094 217.292969 L 149.039062 215.109375 Z M 149.039062 227.824219 L 143.621094 230.011719 L 143.621094 224.882812 L 149.039062 222.699219 Z M 142.289062 184.996094 L 136.171875 187.460938 L 136.171875 182.335938 L 142.289062 179.867188 Z M 142.289062 192.589844 L 136.171875 195.054688 L 136.171875 189.929688 L 142.289062 187.460938 Z M 142.289062 200.179688 L 136.171875 202.644531 L 136.171875 197.519531 L 142.289062 195.054688 Z M 142.289062 207.773438 L 136.171875 210.238281 L 136.171875 205.113281 L 142.289062 202.644531 Z M 142.289062 215.363281 L 136.171875 217.832031 L 136.171875 212.703125 L 142.289062 210.238281 Z M 142.289062 222.953125 L 136.171875 225.421875 L 136.171875 220.296875 L 142.289062 217.832031 Z M 142.289062 230.546875 L 136.171875 233.015625 L 136.171875 227.886719 L 142.289062 225.421875 Z M 165.019531 175.597656 L 165.019531 175.59375 L 157.867188 171.195312 L 135.117188 180.371094 L 135.117188 235.125 L 135.375 234.863281 L 136.402344 233.816406 L 140.296875 233.816406 L 142.289062 233.015625 L 142.289062 233.816406 L 143.621094 233.816406 L 143.621094 232.472656 L 149.039062 230.292969 L 149.039062 233.816406 L 149.609375 233.816406 L 149.609375 230.253906 L 150.371094 230.253906 L 150.371094 229.75 L 156.488281 227.289062 L 156.488281 230.253906 L 160.261719 230.253906 L 160.261719 233.816406 L 160.859375 233.816406 L 161.898438 232.75 L 167.710938 226.78125 L 169.492188 224.949219 L 175.761719 218.515625 L 175.761719 182.207031 L 165.019531 175.597656 " fill-opacity="1" fill-rule="nonzero"/><g clip-path="url(#844abe72fe)"><path fill="#e8dfd5" d="M 198.53125 119.269531 L 198.378906 119.253906 L 181.394531 111.238281 L 178.679688 113.902344 L 177.304688 115.25 L 173.410156 119.070312 L 172.035156 120.417969 L 168.589844 123.792969 L 167.214844 125.148438 L 162.21875 130.054688 L 162.21875 169.277344 L 164.5 170.683594 L 164.5 131.183594 L 167.214844 128.511719 L 167.214844 172.355469 L 168.589844 173.203125 L 168.589844 127.148438 L 172.035156 123.75 L 172.035156 169.457031 L 173.410156 169.457031 L 173.410156 122.390625 L 177.304688 118.550781 L 177.304688 178.5625 L 177.8125 178.875 L 178.679688 179.40625 L 178.679688 117.195312 L 181.394531 114.519531 L 181.394531 212.738281 L 181.515625 212.613281 L 182.539062 211.5625 L 194.574219 211.5625 L 194.574219 152.445312 L 196.664062 151.34375 L 211.570312 143.519531 L 213.660156 142.421875 L 215.460938 143.664062 L 215.460938 127.203125 L 198.53125 119.269531 " fill-opacity="1" fill-rule="nonzero"/></g><path fill="#cd9a5e" d="M 229.339844 166.761719 L 213.210938 156.664062 L 213.210938 152.851562 L 239.859375 165.242188 L 213.386719 146.984375 L 198.484375 154.808594 L 198.484375 165.242188 L 213.210938 159.589844 L 229.339844 166.761719 " fill-opacity="1" fill-rule="nonzero"/><path fill="#cd9a5e" d="M 198.484375 169.261719 L 198.484375 179.695312 L 213.210938 174.042969 L 229.339844 181.21875 L 213.210938 171.117188 L 213.210938 167.308594 L 239.859375 179.695312 L 213.386719 161.4375 L 198.484375 169.261719 " fill-opacity="1" fill-rule="nonzero"/><path fill="#cd9a5e" d="M 198.484375 183.71875 L 198.484375 194.148438 L 213.210938 188.5 L 229.339844 195.671875 L 213.210938 185.570312 L 213.210938 181.761719 L 239.859375 194.148438 L 213.386719 175.894531 L 198.484375 183.71875 " fill-opacity="1" fill-rule="nonzero"/><path fill="#cd9a5e" d="M 213.210938 200.023438 L 229.339844 210.125 L 213.210938 202.953125 L 202.710938 206.984375 L 200.09375 206.984375 L 200.09375 207.988281 L 198.484375 208.605469 L 198.484375 198.171875 L 213.390625 190.347656 L 239.859375 208.605469 L 213.210938 196.214844 L 213.210938 200.023438 " fill-opacity="1" fill-rule="nonzero"/><path fill="#cd9a5e" d="M 239.859375 223.058594 L 222.484375 214.980469 L 220.082031 212.578125 L 219.0625 211.5625 L 215.128906 211.5625 L 213.210938 210.667969 L 213.210938 211.5625 L 211.792969 211.5625 L 211.792969 206.984375 L 209.230469 206.984375 L 213.390625 204.800781 L 239.859375 223.058594 " fill-opacity="1" fill-rule="nonzero"/><g clip-path="url(#4dc0e753db)"><path fill="#cd9a5e" d="M 182.621094 256.359375 L 182.609375 256.347656 L 181.882812 255.605469 L 180.457031 254.140625 L 173.601562 247.105469 L 172.109375 245.574219 L 172.011719 245.472656 L 170.390625 243.808594 L 170.230469 243.640625 L 168.390625 241.757812 L 167.378906 240.71875 L 167.320312 240.65625 L 165.84375 239.140625 L 164.050781 237.300781 L 156.800781 237.300781 L 156.800781 233.738281 L 153.117188 233.738281 L 153.117188 242.492188 L 152.660156 242.019531 L 151.234375 240.5625 L 151.234375 237.300781 L 137.886719 237.300781 L 137.28125 237.917969 L 136.816406 238.398438 L 135.882812 239.355469 L 118.160156 257.546875 L 122.273438 257.546875 L 133.109375 246.425781 L 133.566406 245.957031 L 135.882812 243.578125 L 136.816406 242.621094 L 137.28125 242.144531 L 137.683594 241.734375 L 137.886719 241.523438 L 138.035156 241.679688 L 138.933594 242.601562 L 139.457031 243.132812 L 139.777344 243.460938 L 142.207031 245.957031 L 142.402344 246.15625 L 142.992188 246.761719 L 143.820312 247.613281 L 145.09375 248.921875 L 145.933594 249.78125 L 146.769531 250.640625 L 147.589844 251.480469 L 152.347656 256.359375 L 153.5 257.546875 L 183.777344 257.546875 L 182.621094 256.359375 " fill-opacity="1" fill-rule="nonzero"/></g><path fill="#cd9a5e" d="M 135.226562 250.453125 L 137.601562 250.453125 L 137.601562 248.074219 L 135.226562 248.074219 L 135.226562 250.453125 " fill-opacity="1" fill-rule="nonzero"/><path fill="#cd9a5e" d="M 135.226562 253.726562 L 137.601562 253.726562 L 137.601562 251.351562 L 135.226562 251.351562 L 135.226562 253.726562 " fill-opacity="1" fill-rule="nonzero"/><g clip-path="url(#53e85ae76a)"><path fill="#cd9a5e" d="M 208.660156 252.9375 L 206.640625 250.867188 L 204.921875 249.101562 L 202.910156 247.035156 L 201.476562 245.566406 L 201.195312 245.273438 L 200.613281 244.679688 L 188.039062 244.679688 L 188.039062 247.75 L 187.925781 247.867188 L 187.199219 248.609375 L 186.261719 249.574219 L 186.261719 241.324219 L 182.796875 241.324219 L 182.796875 244.679688 L 175.964844 244.679688 L 175.078125 245.589844 L 175.117188 245.628906 L 181.972656 252.664062 L 183.398438 254.125 L 184.125 254.867188 L 185.292969 256.066406 L 185.578125 256.359375 L 188.796875 259.664062 L 161.367188 259.664062 L 157.378906 263.757812 L 185.90625 263.757812 L 187.199219 262.429688 L 187.925781 261.683594 L 189.355469 260.214844 L 193.109375 256.359375 L 194.074219 255.371094 L 196.105469 253.285156 L 196.199219 253.191406 L 196.890625 252.480469 L 199.273438 250.035156 L 200.613281 248.660156 L 201.476562 249.546875 L 201.582031 249.652344 L 203.292969 251.414062 L 205.03125 253.191406 L 205.3125 253.480469 L 205.664062 253.84375 L 208.117188 256.359375 L 215.324219 263.757812 L 219.199219 263.757812 L 211.996094 256.359375 L 208.660156 252.9375 " fill-opacity="1" fill-rule="nonzero"/></g><path fill="#cd9a5e" d="M 201.308594 257.550781 L 203.546875 257.550781 L 203.546875 255.308594 L 201.308594 255.308594 L 201.308594 257.550781 " fill-opacity="1" fill-rule="nonzero"/><path fill="#cd9a5e" d="M 198.222656 257.550781 L 200.460938 257.550781 L 200.460938 255.308594 L 198.222656 255.308594 L 198.222656 257.550781 " fill-opacity="1" fill-rule="nonzero"/><path fill="#cd9a5e" d="M 201.308594 260.632812 L 203.546875 260.632812 L 203.546875 258.398438 L 201.308594 258.398438 L 201.308594 260.632812 " fill-opacity="1" fill-rule="nonzero"/><path fill="#cd9a5e" d="M 198.222656 260.632812 L 200.460938 260.632812 L 200.460938 258.398438 L 198.222656 258.398438 L 198.222656 260.632812 " fill-opacity="1" fill-rule="nonzero"/><path fill="#cd9a5e" d="M 138.5 250.449219 L 140.875 250.449219 L 140.875 248.074219 L 138.5 248.074219 L 138.5 250.449219 " fill-opacity="1" fill-rule="nonzero"/><path fill="#cd9a5e" d="M 138.5 253.726562 L 140.875 253.726562 L 140.875 251.351562 L 138.5 251.351562 L 138.5 253.726562 " fill-opacity="1" fill-rule="nonzero"/><path fill="#cd9a5e" d="M 187.851562 229.175781 L 184.625 229.175781 L 184.625 232.398438 L 187.851562 232.398438 L 187.851562 229.175781 " fill-opacity="1" fill-rule="nonzero"/><path fill="#cd9a5e" d="M 183.402344 229.175781 L 180.179688 229.175781 L 180.179688 232.398438 L 183.402344 232.398438 L 183.402344 229.175781 " fill-opacity="1" fill-rule="nonzero"/><path fill="#cd9a5e" d="M 184.625 236.847656 L 187.851562 236.847656 L 187.851562 233.621094 L 184.625 233.621094 L 184.625 236.847656 " fill-opacity="1" fill-rule="nonzero"/><path fill="#cd9a5e" d="M 180.179688 236.847656 L 183.402344 236.847656 L 183.402344 233.621094 L 180.179688 233.621094 L 180.179688 236.847656 " fill-opacity="1" fill-rule="nonzero"/><g clip-path="url(#4fe80ea6fb)"><path fill="#cd9a5e" d="M 165.566406 235.820312 L 167.320312 237.621094 L 170.230469 234.636719 L 172.011719 232.808594 L 181.460938 223.109375 L 183.257812 221.269531 L 184.03125 220.46875 L 188.871094 225.289062 L 190.652344 227.058594 L 191.636719 228.035156 L 192.601562 228.996094 L 194.335938 230.722656 L 196.386719 232.761719 L 198.140625 234.507812 L 200.199219 236.558594 L 201.957031 238.308594 L 204.027344 240.367188 L 205.789062 242.121094 L 207.863281 244.183594 L 209.628906 245.941406 L 211.703125 248.007812 L 217.945312 254.222656 L 256.839844 254.222656 L 256.832031 254.214844 L 256.835938 254.21875 L 256.449219 253.820312 L 255.335938 252.679688 L 254.789062 252.15625 L 254.429688 251.8125 L 254.4375 251.820312 L 254.414062 251.796875 L 221.382812 218.785156 L 217.640625 215.042969 L 208.332031 215.042969 L 208.332031 210.464844 L 203.597656 210.464844 L 203.597656 221.714844 L 202.390625 220.476562 L 201.183594 219.234375 L 201.183594 215.042969 L 184.03125 215.042969 L 183.257812 215.839844 L 181.460938 217.683594 L 172.011719 227.382812 L 170.230469 229.210938 L 164.414062 235.183594 L 164.941406 235.183594 L 165.566406 235.820312 " fill-opacity="1" fill-rule="nonzero"/></g></svg>